Coordinates
version=1
nRows=22
nColumns=24
inDegrees=yes

Units are S.I. units (second, meters, Newtons, ...)
Angles are in degrees.

endheader
time	pelvis_tilt	pelvis_list	pelvis_rotation	pelvis_tx	pelvis_ty	pelvis_tz	hip_flexion_r	hip_adduction_r	hip_rotation_r	knee_angle_r	ankle_angle_r	subtalar_angle_r	mtp_angle_r	hip_flexion_l	hip_adduction_l	hip_rotation_l	knee_angle_l	ankle_angle_l	subtalar_angle_l	mtp_angle_l	lumbar_extension	lumbar_bending	lumbar_rotation
      2.50000000	     61.93825744	      5.28949734	      9.26189562	      0.77291165	      1.08340537	     -0.27107850	     -4.56722722	    -11.53793673	     -4.33497056	    -52.38202338	    -16.50501208	      0.64066497	     48.13547746	     14.68466326	    -15.57284107	      4.08530315	     -3.99628526	    -19.81199001	      7.66742593	    -19.68838995	      0.00000000	      0.00000000	      0.00000000
      2.51000000	     61.94045829	      5.28879712	      9.25925965	      0.77290494	      1.08340477	     -0.27107522	     -4.56730736	    -11.53858923	     -4.33290379	    -52.38285311	    -16.50276400	      0.64214273	     48.13392728	     14.68007054	    -15.57262114	      4.09016274	     -3.98664371	    -19.81318006	      7.66778128	    -19.67791881	      0.00000000	      0.00000000	      0.00000000
      2.52000000	     61.94440891	      5.28917152	      9.25677963	      0.77289595	      1.08339944	     -0.27106572	     -4.56949487	    -11.53932474	     -4.32979327	    -52.38296924	    -16.50009636	      0.64319796	     48.13187102	     14.67328150	    -15.57230978	      4.09455149	     -3.97629641	    -19.81494346	      7.66582307	    -19.66502438	      0.00000000	      0.00000000	      0.00000000
      2.53000000	     61.94963667	      5.29059273	      9.25472854	      0.77288642	      1.08338861	     -0.27105796	     -4.57337278	    -11.54006924	     -4.32598754	    -52.38197179	    -16.49689440	      0.64364663	     48.12835741	     14.66556679	    -15.57213883	      4.09839172	     -3.96700004	    -19.81724263	      7.66239274	    -19.64831129	      0.00000000	      0.00000000	      0.00000000
      2.54000000	     61.95528216	      5.29274263	      9.25312677	      0.77287824	      1.08337724	     -0.27105567	     -4.57826429	    -11.54061103	     -4.32212385	    -52.37968696	    -16.49326246	      0.64342507	     48.12239510	     14.65867016	    -15.57222949	      4.10151842	     -3.96052648	    -19.82013197	      7.65848221	    -19.62701101	      0.00000000	      0.00000000	      0.00000000
      2.55000000	     61.96016948	      5.29509975	      9.25190265	      0.77287174	      1.08337613	     -0.27105079	     -4.58349808	    -11.54066159	     -4.31895741	    -52.37627965	    -16.48952107	      0.64256963	     48.11319636	     14.65425006	    -15.57244731	      4.10380888	     -3.95783546	    -19.82342508	      7.65513960	    -19.60111055	      0.00000000	      0.00000000	      0.00000000
      2.56000000	     61.96309252	      5.29716832	      9.25119318	      0.77286575	      1.08338993	     -0.27103641	     -4.58833819	    -11.54013209	     -4.31702960	    -52.37208780	    -16.48611317	      0.64116758	     48.10038162	     14.65320017	    -15.57274837	      4.10535908	     -3.95854298	    -19.82650030	      7.65330939	    -19.57139169	      0.00000000	      0.00000000	      0.00000000
      2.57000000	     61.96342249	      5.29868288	      9.25134959	      0.77286187	      1.08340820	     -0.27101917	     -4.59182564	    -11.53924033	     -4.31642836	    -52.36735241	    -16.48347050	      0.63930984	     48.08410178	     14.65543559	    -15.57347113	      4.10652637	     -3.96109381	    -19.82837345	      7.65361716	    -19.53937503	      0.00000000	      0.00000000	      0.00000000
      2.58000000	     61.96144190	      5.29957451	      9.25254017	      0.77286461	      1.08341758	     -0.27101186	     -4.59303671	    -11.53827258	     -4.31681256	    -52.36223078	    -16.48190248	      0.63708289	     48.06505740	     14.66027029	    -15.57511647	      4.10776250	     -3.96351025	    -19.82803840	      7.65616182	    -19.50717959	      0.00000000	      0.00000000	      0.00000000
      2.59000000	     61.95791357	      5.29974377	      9.25445392	      0.77287244	      1.08341714	     -0.27101640	     -4.59168062	    -11.53733134	     -4.31758186	    -52.35707471	    -16.48152929	      0.63459162	     48.04441484	     14.66682225	    -15.57793185	      4.10936019	     -3.96425022	    -19.82494976	      7.66040574	    -19.47732036	      0.00000000	      0.00000000	      0.00000000
      2.60000000	     61.95353281	      5.29912679	      9.25641776	      0.77287775	      1.08341359	     -0.27102320	     -4.58832239	    -11.53627009	     -4.31809919	    -52.35251763	    -16.48225869	      0.63199061	     48.02363452	     14.67415471	    -15.58183186	      4.11128533	     -3.96270267	    -19.81942490	      7.66523360	    -19.45246977	      0.00000000	      0.00000000	      0.00000000
      2.61000000	     61.94889072	      5.29799129	      9.25774970	      0.77287932	      1.08341026	     -0.27102514	     -4.58398395	    -11.53485600	     -4.31791389	    -52.34916860	    -16.48380750	      0.62951789	     48.00424030	     14.68135647	    -15.58663245	      4.11317915	     -3.95909551	    -19.81275965	      7.66919456	    -19.43521063	      0.00000000	      0.00000000	      0.00000000
      2.62000000	     61.94458915	      5.29686271	      9.25806997	      0.77288274	      1.08340792	     -0.27102311	     -4.57963649	    -11.53309385	     -4.31687542	    -52.34726480	    -16.48578123	      0.62752072	     47.98757693	     14.68764528	    -15.59217442	      4.11449077	     -3.95403443	    -19.80701514	      7.67083899	    -19.42780617	      0.00000000	      0.00000000	      0.00000000
      2.63000000	     61.94120130	      5.29616289	      9.25740574	      0.77288931	      1.08340841	     -0.27102144	     -4.57595694	    -11.53131796	     -4.31513384	    -52.34663234	    -16.48780140	      0.62644360	     47.97461304	     14.69246840	    -15.59815142	      4.11461997	     -3.94801148	    -19.80454590	      7.66900853	    -19.43200577	      0.00000000	      0.00000000	      0.00000000
      2.64000000	     61.93920791	      5.29606209	      9.25610150	      0.77289462	      1.08341144	     -0.27102344	     -4.57331112	    -11.52988386	     -4.31307007	    -52.34689371	    -16.48961356	      0.62674747	     47.96583770	     14.69561663	    -15.60389484	      4.11300724	     -3.94104655	    -19.80736747	      7.66299003	    -19.44889782	      0.00000000	      0.00000000	      0.00000000
      2.65000000	     61.93892061	      5.29660343	      9.25466961	      0.77289450	      1.08341351	     -0.27102842	     -4.57187067	    -11.52889600	     -4.31111012	    -52.34769194	    -16.49111139	      0.62876260	     47.96126846	     14.69730631	    -15.60852000	      4.10924013	     -3.93258337	    -19.81653947	      7.65253403	    -19.47881225	      0.00000000	      0.00000000	      0.00000000
      2.66000000	     61.94038924	      5.29784428	      9.25359619	      0.77288872	      1.08341304	     -0.27103315	     -4.57171607	    -11.52825502	     -4.30951060	    -52.34881569	    -16.49228215	      0.63253701	     47.96055609	     14.69814102	    -15.61140905	      4.10321177	     -3.92173518	    -19.83182326	      7.63780081	    -19.52126923	      0.00000000	      0.00000000	      0.00000000
      2.67000000	     61.94331390	      5.29978882	      9.25313161	      0.77288005	      1.08341291	     -0.27103509	     -4.57281823	    -11.52787128	     -4.30828925	    -52.35019267	    -16.49313843	      0.63777193	     47.96314590	     14.69888767	    -15.61255807	      4.09521787	     -3.90778356	    -19.85179582	      7.61930442	    -19.57497614	      0.00000000	      0.00000000	      0.00000000
      2.68000000	     61.94693585	      5.30229360	      9.25326600	      0.77287078	      1.08341433	     -0.27103523	     -4.57492600	    -11.52776233	     -4.30733341	    -52.35174407	    -16.49369394	      0.64389245	     47.96844596	     14.70006885	    -15.61252860	      4.08588081	     -3.89067439	    -19.87437682	      7.59787894	    -19.63788153	      0.00000000	      0.00000000	      0.00000000
      2.69000000	     61.95020848	      5.30510685	      9.25388100	      0.77286216	      1.08341357	     -0.27103874	     -4.57744409	    -11.52793798	     -4.30658817	    -52.35321235	    -16.49399743	      0.65022717	     47.97596451	     14.70171390	    -15.61198825	      4.07594248	     -3.87117101	    -19.89752895	      7.57465606	    -19.70728905	      0.00000000	      0.00000000	      0.00000000
      2.70000000	     61.95231620	      5.30788035	      9.25489150	      0.77285400	      1.08340967	     -0.27104776	     -4.57955374	    -11.52833420	     -4.30615739	    -52.35420377	    -16.49419982	      0.65622503	     47.98539803	     14.70358829	    -15.61119380	      4.06608544	     -3.85052324	    -19.91981675	      7.55105602	    -19.78002133	      0.00000000	      0.00000000	      0.00000000
      2.71000000	     61.95298684	      5.31033799	      9.25628163	      0.77284261	      1.08340726	     -0.27105858	     -4.58063177	    -11.52882850	     -4.30630943	    -52.35447961	    -16.49459508	      0.66162934	     47.99666038	     14.70554758	    -15.61004103	      4.05691852	     -3.82997432	    -19.94056539	      7.52880534	    -19.85261853	      0.00000000	      0.00000000	      0.00000000
